<svg xmlns="http://www.w3.org/2000/svg" viewBox="0 0 512 512" role="img" aria-label="Receipt emerging from a printer slot">
  <defs>
    <filter id="shadow" x="-20%" y="-20%" width="140%" height="160%">
      <feDropShadow dx="0" dy="14" stdDeviation="12" flood-color="#181612" flood-opacity="0.16"/>
    </filter>
  </defs>
  <rect width="512" height="512" rx="104" fill="#f7f0e5"/>
  <g filter="url(#shadow)">
    <rect x="70" y="122" width="372" height="174" rx="50" fill="#2d2c29"/>
    <rect x="105" y="172" width="302" height="72" rx="22" fill="#090908"/>
    <path d="M151 206c0-14 11-25 25-25h160c14 0 25 11 25 25v217l-12-12-12 12-12-12-12 12-12-12-12 12-12-12-12 12-12-12-12 12-12-12-12 12-12-12-12 12-12-12-12 12-12-12-12 12-12-12-12 12-12-12V206Z" fill="#fff9ee"/>
    <path d="M151 250h210v28H151z" fill="#c63e37"/>
    <rect x="92" y="224" width="328" height="42" rx="14" fill="#1a1917"/>
    <rect x="112" y="235" width="288" height="13" rx="6.5" fill="#050504"/>
  </g>
  <path d="M94 154c14-18 33-26 57-26h210c24 0 43 8 57 26" fill="none" stroke="#ffffff" stroke-opacity="0.12" stroke-width="4" stroke-linecap="round"/>
</svg>
