<svg xmlns="http://www.w3.org/2000/svg" viewBox="0 0 512 512" role="img" aria-label="Receipt emerging from a printer slot">
  <rect width="512" height="512" fill="#f7f0e5"/>
  <rect x="92" y="144" width="328" height="154" rx="44" fill="#2d2c29"/>
  <rect x="124" y="188" width="264" height="64" rx="20" fill="#090908"/>
  <path d="M168 216c0-12 10-22 22-22h132c12 0 22 10 22 22v180l-11-11-11 11-11-11-11 11-11-11-11 11-11-11-11 11-11-11-11 11-11-11-11 11-11-11-11 11-11-11-11 11-11-11-11 11-11-11V216Z" fill="#fff9ee"/>
  <path d="M168 254h176v25H168z" fill="#c63e37"/>
  <rect x="112" y="234" width="288" height="38" rx="13" fill="#1a1917"/>
  <rect x="130" y="244" width="252" height="12" rx="6" fill="#050504"/>
</svg>
