<?xml version="1.0" encoding="UTF-8"?><svg xmlns="http://www.w3.org/2000/svg" width="45mm" height="45mm" viewBox="0 0 45 45" role="img" aria-labelledby="t d"><title id="t">Lab Dojo edition 08, token JWB639 QR</title><desc id="d">https://bad-day-receipt.vercel.app/access/08/JWB639</desc><rect width="45" height="45" fill="#fff"/><path d="M4 4.5h7M15 4.5h1M19 4.5h1M22 4.5h1M27 4.5h3M34 4.5h7M4 5.5h1M10 5.5h1M12 5.5h1M17 5.5h3M21 5.5h4M26 5.5h1M30 5.5h1M34 5.5h1M40 5.5h1M4 6.5h1M6 6.5h3M10 6.5h1M13 6.5h3M19 6.5h3M24 6.5h2M28 6.5h5M34 6.5h1M36 6.5h3M40 6.5h1M4 7.5h1M6 7.5h3M10 7.5h1M12 7.5h5M20 7.5h2M24 7.5h2M28 7.5h2M32 7.5h1M34 7.5h1M36 7.5h3M40 7.5h1M4 8.5h1M6 8.5h3M10 8.5h1M12 8.5h2M15 8.5h1M18 8.5h1M20 8.5h1M23 8.5h3M28 8.5h1M30 8.5h1M34 8.5h1M36 8.5h3M40 8.5h1M4 9.5h1M10 9.5h1M16 9.5h2M22 9.5h2M25 9.5h3M34 9.5h1M40 9.5h1M4 10.5h7M12 10.5h1M14 10.5h1M16 10.5h1M18 10.5h1M20 10.5h1M22 10.5h1M24 10.5h1M26 10.5h1M28 10.5h1M30 10.5h1M32 10.5h1M34 10.5h7M12 11.5h2M18 11.5h1M20 11.5h5M27 11.5h3M31 11.5h2M5 12.5h1M7 12.5h4M12 12.5h3M16 12.5h1M18 12.5h7M29 12.5h1M32 12.5h3M36 12.5h2M39 12.5h1M7 13.5h2M12 13.5h2M17 13.5h2M20 13.5h1M24 13.5h4M29 13.5h1M33 13.5h1M36 13.5h1M4 14.5h2M7 14.5h4M13 14.5h2M16 14.5h3M20 14.5h2M24 14.5h1M26 14.5h2M29 14.5h1M33 14.5h2M37 14.5h4M6 15.5h2M11 15.5h4M18 15.5h3M22 15.5h1M24 15.5h1M27 15.5h1M30 15.5h2M33 15.5h3M37 15.5h4M4 16.5h2M7 16.5h2M10 16.5h1M13 16.5h1M15 16.5h1M18 16.5h2M26 16.5h3M32 16.5h1M34 16.5h1M38 16.5h1M4 17.5h3M8 17.5h1M11 17.5h4M17 17.5h4M23 17.5h1M25 17.5h9M36 17.5h1M38 17.5h1M4 18.5h2M10 18.5h4M15 18.5h2M20 18.5h1M22 18.5h1M24 18.5h1M28 18.5h4M34 18.5h2M37 18.5h2M40 18.5h1M5 19.5h2M8 19.5h1M12 19.5h1M22 19.5h2M25 19.5h2M30 19.5h1M32 19.5h2M36 19.5h5M4 20.5h1M6 20.5h1M8 20.5h1M10 20.5h1M13 20.5h1M15 20.5h1M17 20.5h1M19 20.5h1M21 20.5h1M25 20.5h8M34 20.5h1M38 20.5h2M6 21.5h1M9 21.5h1M11 21.5h4M17 21.5h2M20 21.5h1M26 21.5h2M31 21.5h1M33 21.5h1M35 21.5h1M37 21.5h1M39 21.5h1M4 22.5h1M7 22.5h2M10 22.5h2M13 22.5h4M19 22.5h1M22 22.5h2M25 22.5h1M28 22.5h1M30 22.5h2M33 22.5h2M36 22.5h1M38 22.5h1M40 22.5h1M4 23.5h1M7 23.5h1M11 23.5h1M13 23.5h1M18 23.5h3M22 23.5h3M27 23.5h1M29 23.5h1M34 23.5h1M36 23.5h2M39 23.5h1M5 24.5h1M8 24.5h1M10 24.5h1M12 24.5h1M15 24.5h1M18 24.5h1M20 24.5h1M22 24.5h3M27 24.5h1M30 24.5h1M32 24.5h1M34 24.5h1M36 24.5h1M40 24.5h1M4 25.5h2M8 25.5h2M12 25.5h2M16 25.5h1M18 25.5h1M20 25.5h5M26 25.5h2M29 25.5h4M35 25.5h3M40 25.5h1M7 26.5h2M10 26.5h1M19 26.5h1M21 26.5h1M27 26.5h1M29 26.5h1M31 26.5h1M33 26.5h2M36 26.5h3M40 26.5h1M5 27.5h1M8 27.5h1M14 27.5h1M16 27.5h1M18 27.5h1M22 27.5h1M24 27.5h1M28 27.5h2M31 27.5h2M35 27.5h1M37 27.5h2M4 28.5h1M7 28.5h1M10 28.5h1M12 28.5h2M18 28.5h1M24 28.5h1M27 28.5h3M32 28.5h3M37 28.5h1M4 29.5h3M8 29.5h2M11 29.5h3M16 29.5h2M20 29.5h1M22 29.5h1M27 29.5h1M29 29.5h2M33 29.5h1M35 29.5h3M4 30.5h2M7 30.5h4M13 30.5h6M20 30.5h1M22 30.5h1M24 30.5h3M28 30.5h1M31 30.5h1M34 30.5h3M39 30.5h2M4 31.5h1M8 31.5h2M11 31.5h1M14 31.5h1M16 31.5h1M20 31.5h1M23 31.5h2M26 31.5h2M30 31.5h1M32 31.5h2M36 31.5h5M4 32.5h1M6 32.5h1M9 32.5h2M12 32.5h2M15 32.5h1M18 32.5h1M23 32.5h1M27 32.5h3M32 32.5h6M40 32.5h1M12 33.5h1M14 33.5h2M20 33.5h2M24 33.5h1M29 33.5h1M32 33.5h1M36 33.5h3M4 34.5h7M14 34.5h3M18 34.5h1M21 34.5h7M32 34.5h1M34 34.5h1M36 34.5h3M40 34.5h1M4 35.5h1M10 35.5h1M12 35.5h2M15 35.5h2M19 35.5h6M26 35.5h1M28 35.5h5M36 35.5h2M39 35.5h2M4 36.5h1M6 36.5h3M10 36.5h1M12 36.5h3M16 36.5h1M19 36.5h2M23 36.5h1M25 36.5h2M30 36.5h7M40 36.5h1M4 37.5h1M6 37.5h3M10 37.5h1M12 37.5h2M18 37.5h1M20 37.5h3M25 37.5h1M28 37.5h1M31 37.5h1M34 37.5h2M38 37.5h2M4 38.5h1M6 38.5h3M10 38.5h1M13 38.5h1M15 38.5h1M17 38.5h1M23 38.5h3M27 38.5h1M32 38.5h1M35 38.5h6M4 39.5h1M10 39.5h1M12 39.5h1M14 39.5h2M18 39.5h7M26 39.5h3M30 39.5h1M34 39.5h2M37 39.5h4M4 40.5h7M14 40.5h1M18 40.5h1M21 40.5h1M24 40.5h1M26 40.5h2M32 40.5h1M34 40.5h4M40 40.5h1" fill="none" stroke="#000" stroke-width="1" stroke-linecap="butt" shape-rendering="crispEdges"/></svg>