<?xml version="1.0" encoding="UTF-8"?><svg xmlns="http://www.w3.org/2000/svg" width="45mm" height="45mm" viewBox="0 0 45 45" role="img" aria-labelledby="t d"><title id="t">Lab Dojo edition 07, token J49AQW QR</title><desc id="d">https://bad-day-receipt.vercel.app/access/07/J49AQW</desc><rect width="45" height="45" fill="#fff"/><path d="M4 4.5h7M16 4.5h2M19 4.5h1M22 4.5h3M27 4.5h3M34 4.5h7M4 5.5h1M10 5.5h1M12 5.5h1M15 5.5h1M17 5.5h3M21 5.5h4M26 5.5h1M30 5.5h1M34 5.5h1M40 5.5h1M4 6.5h1M6 6.5h3M10 6.5h1M13 6.5h2M17 6.5h1M19 6.5h3M23 6.5h3M28 6.5h5M34 6.5h1M36 6.5h3M40 6.5h1M4 7.5h1M6 7.5h3M10 7.5h1M12 7.5h4M18 7.5h1M20 7.5h2M25 7.5h1M28 7.5h2M32 7.5h1M34 7.5h1M36 7.5h3M40 7.5h1M4 8.5h1M6 8.5h3M10 8.5h1M12 8.5h2M15 8.5h3M20 8.5h1M23 8.5h3M28 8.5h1M30 8.5h1M34 8.5h1M36 8.5h3M40 8.5h1M4 9.5h1M10 9.5h1M17 9.5h2M22 9.5h1M25 9.5h3M34 9.5h1M40 9.5h1M4 10.5h7M12 10.5h1M14 10.5h1M16 10.5h1M18 10.5h1M20 10.5h1M22 10.5h1M24 10.5h1M26 10.5h1M28 10.5h1M30 10.5h1M32 10.5h1M34 10.5h7M12 11.5h2M15 11.5h4M20 11.5h3M27 11.5h3M31 11.5h2M5 12.5h1M7 12.5h4M12 12.5h5M19 12.5h6M29 12.5h1M32 12.5h3M36 12.5h2M39 12.5h1M8 13.5h1M12 13.5h1M17 13.5h1M21 13.5h1M24 13.5h4M29 13.5h1M33 13.5h4M4 14.5h4M10 14.5h1M13 14.5h2M16 14.5h3M20 14.5h2M24 14.5h1M26 14.5h2M29 14.5h1M33 14.5h8M6 15.5h1M8 15.5h1M11 15.5h3M18 15.5h2M21 15.5h2M24 15.5h1M27 15.5h1M30 15.5h2M33 15.5h2M38 15.5h3M4 16.5h2M10 16.5h1M13 16.5h1M15 16.5h1M18 16.5h4M26 16.5h3M32 16.5h1M34 16.5h1M4 17.5h2M7 17.5h3M11 17.5h4M17 17.5h2M20 17.5h1M22 17.5h2M25 17.5h9M36 17.5h1M38 17.5h1M4 18.5h4M9 18.5h5M15 18.5h2M20 18.5h3M24 18.5h1M28 18.5h4M34 18.5h2M37 18.5h2M40 18.5h1M5 19.5h1M7 19.5h1M9 19.5h1M12 19.5h1M19 19.5h2M22 19.5h2M25 19.5h2M30 19.5h1M32 19.5h2M36 19.5h5M4 20.5h1M8 20.5h1M10 20.5h1M13 20.5h5M25 20.5h8M34 20.5h1M38 20.5h2M4 21.5h1M6 21.5h1M12 21.5h7M20 21.5h1M23 21.5h1M26 21.5h2M31 21.5h1M33 21.5h1M35 21.5h1M37 21.5h1M39 21.5h1M5 22.5h1M7 22.5h2M10 22.5h2M13 22.5h2M17 22.5h1M19 22.5h1M22 22.5h1M24 22.5h2M28 22.5h1M30 22.5h2M33 22.5h2M36 22.5h1M38 22.5h1M40 22.5h1M4 23.5h2M7 23.5h1M11 23.5h3M15 23.5h1M19 23.5h2M22 23.5h3M27 23.5h1M29 23.5h1M34 23.5h1M36 23.5h2M39 23.5h1M4 24.5h1M8 24.5h1M10 24.5h3M17 24.5h1M20 24.5h1M22 24.5h2M27 24.5h1M30 24.5h1M32 24.5h1M34 24.5h1M36 24.5h1M40 24.5h1M4 25.5h1M8 25.5h2M12 25.5h2M16 25.5h1M18 25.5h1M20 25.5h4M26 25.5h2M29 25.5h4M35 25.5h3M40 25.5h1M4 26.5h2M7 26.5h2M10 26.5h2M15 26.5h1M17 26.5h3M21 26.5h1M24 26.5h1M27 26.5h1M29 26.5h1M31 26.5h1M33 26.5h2M36 26.5h3M40 26.5h1M8 27.5h1M14 27.5h2M22 27.5h3M28 27.5h2M31 27.5h2M34 27.5h2M37 27.5h2M5 28.5h1M10 28.5h1M12 28.5h2M15 28.5h1M17 28.5h2M24 28.5h1M27 28.5h3M32 28.5h1M34 28.5h4M4 29.5h1M6 29.5h1M9 29.5h1M11 29.5h3M16 29.5h2M20 29.5h3M27 29.5h1M29 29.5h2M33 29.5h2M36 29.5h2M4 30.5h2M8 30.5h1M10 30.5h1M13 30.5h6M21 30.5h1M24 30.5h3M28 30.5h1M31 30.5h1M34 30.5h1M37 30.5h4M4 31.5h1M7 31.5h1M11 31.5h1M13 31.5h1M16 31.5h1M19 31.5h1M22 31.5h3M26 31.5h2M30 31.5h2M33 31.5h1M38 31.5h3M4 32.5h1M6 32.5h5M12 32.5h1M14 32.5h2M18 32.5h6M27 32.5h3M31 32.5h6M38 32.5h1M40 32.5h1M12 33.5h4M21 33.5h1M24 33.5h1M29 33.5h1M32 33.5h1M36 33.5h3M4 34.5h7M13 34.5h4M18 34.5h10M32 34.5h1M34 34.5h1M36 34.5h3M40 34.5h1M4 35.5h1M10 35.5h1M12 35.5h1M14 35.5h3M19 35.5h6M26 35.5h1M28 35.5h5M36 35.5h2M39 35.5h2M4 36.5h1M6 36.5h3M10 36.5h1M12 36.5h3M19 36.5h2M22 36.5h2M25 36.5h2M30 36.5h7M40 36.5h1M4 37.5h1M6 37.5h3M10 37.5h1M12 37.5h4M17 37.5h2M20 37.5h2M28 37.5h1M31 37.5h1M34 37.5h2M38 37.5h2M4 38.5h1M6 38.5h3M10 38.5h1M13 38.5h1M16 38.5h1M23 38.5h2M26 38.5h2M32 38.5h1M35 38.5h6M4 39.5h1M10 39.5h1M12 39.5h1M14 39.5h1M16 39.5h1M19 39.5h6M27 39.5h2M30 39.5h1M34 39.5h2M37 39.5h4M4 40.5h7M14 40.5h4M21 40.5h1M24 40.5h1M26 40.5h2M32 40.5h1M34 40.5h4M40 40.5h1" fill="none" stroke="#000" stroke-width="1" stroke-linecap="butt" shape-rendering="crispEdges"/></svg>