<?xml version="1.0" encoding="UTF-8"?><svg xmlns="http://www.w3.org/2000/svg" width="45mm" height="45mm" viewBox="0 0 45 45" role="img" aria-labelledby="qr-title qr-desc"><title id="qr-title">Lab Dojo edition 02, token W9JK4J QR</title><desc id="qr-desc">https://bad-day-receipt.vercel.app/access/02/W9JK4J</desc><rect width="45" height="45" fill="#fff"/><path d="M4 4h7v1h-7zM13 4h2v1h-2zM17 4h1v1h-1zM20 4h2v1h-2zM25 4h2v1h-2zM28 4h2v1h-2zM31 4h2v1h-2zM34 4h7v1h-7zM4 5h1v1h-1zM10 5h1v1h-1zM15 5h2v1h-2zM19 5h1v1h-1zM21 5h2v1h-2zM24 5h1v1h-1zM26 5h1v1h-1zM30 5h1v1h-1zM34 5h1v1h-1zM40 5h1v1h-1zM4 6h1v1h-1zM6 6h3v1h-3zM10 6h1v1h-1zM12 6h3v1h-3zM16 6h5v1h-5zM22 6h2v1h-2zM25 6h1v1h-1zM27 6h1v1h-1zM30 6h3v1h-3zM34 6h1v1h-1zM36 6h3v1h-3zM40 6h1v1h-1zM4 7h1v1h-1zM6 7h3v1h-3zM10 7h1v1h-1zM14 7h2v1h-2zM17 7h1v1h-1zM19 7h2v1h-2zM22 7h1v1h-1zM27 7h1v1h-1zM29 7h4v1h-4zM34 7h1v1h-1zM36 7h3v1h-3zM40 7h1v1h-1zM4 8h1v1h-1zM6 8h3v1h-3zM10 8h1v1h-1zM12 8h1v1h-1zM15 8h2v1h-2zM18 8h4v1h-4zM23 8h1v1h-1zM27 8h5v1h-5zM34 8h1v1h-1zM36 8h3v1h-3zM40 8h1v1h-1zM4 9h1v1h-1zM10 9h1v1h-1zM12 9h1v1h-1zM14 9h3v1h-3zM20 9h6v1h-6zM29 9h2v1h-2zM32 9h1v1h-1zM34 9h1v1h-1zM40 9h1v1h-1zM4 10h7v1h-7zM12 10h1v1h-1zM14 10h1v1h-1zM16 10h1v1h-1zM18 10h1v1h-1zM20 10h1v1h-1zM22 10h1v1h-1zM24 10h1v1h-1zM26 10h1v1h-1zM28 10h1v1h-1zM30 10h1v1h-1zM32 10h1v1h-1zM34 10h7v1h-7zM14 11h1v1h-1zM16 11h1v1h-1zM19 11h1v1h-1zM24 11h3v1h-3zM30 11h1v1h-1zM5 12h1v1h-1zM8 12h1v1h-1zM10 12h1v1h-1zM12 12h1v1h-1zM15 12h2v1h-2zM20 12h4v1h-4zM25 12h2v1h-2zM29 12h3v1h-3zM33 12h1v1h-1zM35 12h2v1h-2zM38 12h1v1h-1zM5 13h4v1h-4zM11 13h2v1h-2zM14 13h1v1h-1zM18 13h1v1h-1zM21 13h1v1h-1zM23 13h3v1h-3zM27 13h1v1h-1zM32 13h2v1h-2zM35 13h3v1h-3zM5 14h1v1h-1zM7 14h4v1h-4zM12 14h1v1h-1zM14 14h1v1h-1zM17 14h1v1h-1zM19 14h2v1h-2zM27 14h4v1h-4zM32 14h2v1h-2zM35 14h2v1h-2zM39 14h1v1h-1zM4 15h1v1h-1zM7 15h3v1h-3zM11 15h2v1h-2zM14 15h1v1h-1zM16 15h1v1h-1zM18 15h3v1h-3zM22 15h1v1h-1zM24 15h2v1h-2zM27 15h2v1h-2zM30 15h1v1h-1zM33 15h1v1h-1zM36 15h4v1h-4zM4 16h3v1h-3zM9 16h2v1h-2zM14 16h1v1h-1zM18 16h1v1h-1zM25 16h1v1h-1zM28 16h1v1h-1zM31 16h1v1h-1zM33 16h2v1h-2zM37 16h3v1h-3zM4 17h2v1h-2zM8 17h2v1h-2zM11 17h2v1h-2zM14 17h1v1h-1zM17 17h5v1h-5zM23 17h1v1h-1zM25 17h9v1h-9zM36 17h1v1h-1zM38 17h1v1h-1zM6 18h1v1h-1zM8 18h1v1h-1zM10 18h1v1h-1zM12 18h2v1h-2zM17 18h1v1h-1zM19 18h2v1h-2zM22 18h3v1h-3zM27 18h1v1h-1zM30 18h2v1h-2zM33 18h1v1h-1zM37 18h3v1h-3zM4 19h4v1h-4zM13 19h1v1h-1zM15 19h2v1h-2zM18 19h7v1h-7zM26 19h3v1h-3zM31 19h2v1h-2zM34 19h1v1h-1zM38 19h1v1h-1zM4 20h2v1h-2zM7 20h1v1h-1zM9 20h6v1h-6zM16 20h1v1h-1zM23 20h1v1h-1zM26 20h1v1h-1zM28 20h1v1h-1zM30 20h1v1h-1zM32 20h4v1h-4zM37 20h2v1h-2zM5 21h1v1h-1zM8 21h2v1h-2zM13 21h3v1h-3zM21 21h1v1h-1zM29 21h4v1h-4zM36 21h3v1h-3zM6 22h3v1h-3zM10 22h1v1h-1zM12 22h5v1h-5zM18 22h2v1h-2zM25 22h1v1h-1zM29 22h1v1h-1zM31 22h1v1h-1zM33 22h1v1h-1zM35 22h1v1h-1zM38 22h1v1h-1zM6 23h1v1h-1zM8 23h2v1h-2zM14 23h1v1h-1zM17 23h1v1h-1zM21 23h1v1h-1zM23 23h4v1h-4zM28 23h1v1h-1zM30 23h4v1h-4zM35 23h1v1h-1zM38 23h1v1h-1zM40 23h1v1h-1zM5 24h3v1h-3zM10 24h6v1h-6zM18 24h2v1h-2zM22 24h1v1h-1zM25 24h3v1h-3zM31 24h1v1h-1zM34 24h1v1h-1zM37 24h2v1h-2zM40 24h1v1h-1zM4 25h2v1h-2zM9 25h1v1h-1zM12 25h3v1h-3zM16 25h3v1h-3zM21 25h3v1h-3zM27 25h1v1h-1zM30 25h2v1h-2zM36 25h5v1h-5zM5 26h3v1h-3zM10 26h2v1h-2zM14 26h1v1h-1zM17 26h6v1h-6zM24 26h1v1h-1zM26 26h7v1h-7zM37 26h1v1h-1zM7 27h2v1h-2zM11 27h5v1h-5zM19 27h1v1h-1zM23 27h3v1h-3zM29 27h1v1h-1zM32 27h2v1h-2zM35 27h1v1h-1zM38 27h1v1h-1zM40 27h1v1h-1zM7 28h6v1h-6zM14 28h1v1h-1zM17 28h5v1h-5zM24 28h3v1h-3zM28 28h2v1h-2zM31 28h1v1h-1zM33 28h4v1h-4zM38 28h2v1h-2zM4 29h3v1h-3zM9 29h1v1h-1zM11 29h3v1h-3zM16 29h2v1h-2zM19 29h1v1h-1zM21 29h2v1h-2zM27 29h1v1h-1zM29 29h2v1h-2zM34 29h1v1h-1zM36 29h1v1h-1zM38 29h1v1h-1zM7 30h2v1h-2zM10 30h2v1h-2zM13 30h2v1h-2zM18 30h2v1h-2zM23 30h5v1h-5zM29 30h1v1h-1zM31 30h3v1h-3zM36 30h1v1h-1zM38 30h1v1h-1zM6 31h1v1h-1zM8 31h2v1h-2zM11 31h3v1h-3zM15 31h1v1h-1zM18 31h1v1h-1zM21 31h3v1h-3zM25 31h2v1h-2zM28 31h1v1h-1zM32 31h1v1h-1zM34 31h1v1h-1zM36 31h1v1h-1zM38 31h1v1h-1zM4 32h2v1h-2zM7 32h2v1h-2zM10 32h3v1h-3zM14 32h1v1h-1zM17 32h3v1h-3zM21 32h2v1h-2zM25 32h1v1h-1zM28 32h1v1h-1zM31 32h6v1h-6zM39 32h2v1h-2zM12 33h1v1h-1zM17 33h4v1h-4zM23 33h1v1h-1zM26 33h2v1h-2zM30 33h1v1h-1zM32 33h1v1h-1zM36 33h2v1h-2zM39 33h1v1h-1zM4 34h7v1h-7zM13 34h1v1h-1zM15 34h1v1h-1zM17 34h1v1h-1zM20 34h2v1h-2zM25 34h6v1h-6zM32 34h1v1h-1zM34 34h1v1h-1zM36 34h3v1h-3zM4 35h1v1h-1zM10 35h1v1h-1zM13 35h1v1h-1zM17 35h2v1h-2zM25 35h1v1h-1zM27 35h1v1h-1zM32 35h1v1h-1zM36 35h1v1h-1zM38 35h1v1h-1zM4 36h1v1h-1zM6 36h3v1h-3zM10 36h1v1h-1zM12 36h1v1h-1zM18 36h1v1h-1zM21 36h4v1h-4zM32 36h7v1h-7zM40 36h1v1h-1zM4 37h1v1h-1zM6 37h3v1h-3zM10 37h1v1h-1zM13 37h4v1h-4zM18 37h1v1h-1zM21 37h1v1h-1zM23 37h1v1h-1zM26 37h1v1h-1zM28 37h2v1h-2zM31 37h2v1h-2zM34 37h1v1h-1zM39 37h1v1h-1zM4 38h1v1h-1zM6 38h3v1h-3zM10 38h1v1h-1zM13 38h2v1h-2zM16 38h2v1h-2zM20 38h1v1h-1zM22 38h2v1h-2zM26 38h3v1h-3zM30 38h1v1h-1zM34 38h2v1h-2zM37 38h1v1h-1zM39 38h1v1h-1zM4 39h1v1h-1zM10 39h1v1h-1zM12 39h3v1h-3zM16 39h2v1h-2zM20 39h2v1h-2zM23 39h5v1h-5zM30 39h2v1h-2zM35 39h1v1h-1zM38 39h2v1h-2zM4 40h7v1h-7zM13 40h1v1h-1zM15 40h1v1h-1zM17 40h4v1h-4zM24 40h2v1h-2zM31 40h1v1h-1zM33 40h4v1h-4zM38 40h3v1h-3z" fill="#000" shape-rendering="crispEdges"/></svg>