<?xml version="1.0" encoding="UTF-8"?><svg xmlns="http://www.w3.org/2000/svg" width="45mm" height="45mm" viewBox="0 0 45 45" role="img" aria-labelledby="qr-title qr-desc"><title id="qr-title">Lab Dojo edition 04, token 7PGQZM QR</title><desc id="qr-desc">https://bad-day-receipt.vercel.app/access/04/7PGQZM</desc><rect width="45" height="45" fill="#fff"/><path d="M4 4h7v1h-7zM14 4h1v1h-1zM16 4h2v1h-2zM19 4h1v1h-1zM23 4h2v1h-2zM27 4h3v1h-3zM34 4h7v1h-7zM4 5h1v1h-1zM10 5h1v1h-1zM15 5h1v1h-1zM17 5h1v1h-1zM19 5h1v1h-1zM21 5h1v1h-1zM24 5h1v1h-1zM26 5h1v1h-1zM28 5h2v1h-2zM34 5h1v1h-1zM40 5h1v1h-1zM4 6h1v1h-1zM6 6h3v1h-3zM10 6h1v1h-1zM13 6h2v1h-2zM16 6h1v1h-1zM18 6h3v1h-3zM23 6h3v1h-3zM27 6h3v1h-3zM31 6h2v1h-2zM34 6h1v1h-1zM36 6h3v1h-3zM40 6h1v1h-1zM4 7h1v1h-1zM6 7h3v1h-3zM10 7h1v1h-1zM12 7h2v1h-2zM15 7h1v1h-1zM21 7h2v1h-2zM25 7h2v1h-2zM29 7h2v1h-2zM34 7h1v1h-1zM36 7h3v1h-3zM40 7h1v1h-1zM4 8h1v1h-1zM6 8h3v1h-3zM10 8h1v1h-1zM13 8h6v1h-6zM25 8h2v1h-2zM28 8h3v1h-3zM32 8h1v1h-1zM34 8h1v1h-1zM36 8h3v1h-3zM40 8h1v1h-1zM4 9h1v1h-1zM10 9h1v1h-1zM12 9h1v1h-1zM14 9h2v1h-2zM17 9h2v1h-2zM20 9h2v1h-2zM23 9h3v1h-3zM28 9h1v1h-1zM32 9h1v1h-1zM34 9h1v1h-1zM40 9h1v1h-1zM4 10h7v1h-7zM12 10h1v1h-1zM14 10h1v1h-1zM16 10h1v1h-1zM18 10h1v1h-1zM20 10h1v1h-1zM22 10h1v1h-1zM24 10h1v1h-1zM26 10h1v1h-1zM28 10h1v1h-1zM30 10h1v1h-1zM32 10h1v1h-1zM34 10h7v1h-7zM12 11h2v1h-2zM20 11h2v1h-2zM23 11h2v1h-2zM27 11h1v1h-1zM30 11h3v1h-3zM5 12h2v1h-2zM10 12h1v1h-1zM13 12h2v1h-2zM16 12h1v1h-1zM18 12h2v1h-2zM22 12h2v1h-2zM27 12h1v1h-1zM29 12h2v1h-2zM32 12h1v1h-1zM34 12h2v1h-2zM37 12h1v1h-1zM4 13h1v1h-1zM6 13h2v1h-2zM13 13h2v1h-2zM16 13h2v1h-2zM19 13h2v1h-2zM22 13h1v1h-1zM25 13h1v1h-1zM27 13h4v1h-4zM32 13h2v1h-2zM35 13h1v1h-1zM37 13h1v1h-1zM40 13h1v1h-1zM4 14h1v1h-1zM7 14h5v1h-5zM13 14h2v1h-2zM16 14h1v1h-1zM18 14h1v1h-1zM21 14h4v1h-4zM27 14h1v1h-1zM32 14h3v1h-3zM36 14h1v1h-1zM39 14h2v1h-2zM4 15h1v1h-1zM7 15h3v1h-3zM11 15h2v1h-2zM15 15h2v1h-2zM18 15h5v1h-5zM24 15h1v1h-1zM26 15h1v1h-1zM28 15h1v1h-1zM30 15h3v1h-3zM37 15h1v1h-1zM4 16h7v1h-7zM15 16h1v1h-1zM18 16h1v1h-1zM20 16h3v1h-3zM26 16h3v1h-3zM32 16h1v1h-1zM34 16h1v1h-1zM38 16h1v1h-1zM7 17h1v1h-1zM9 17h1v1h-1zM13 17h1v1h-1zM16 17h1v1h-1zM19 17h1v1h-1zM21 17h1v1h-1zM24 17h4v1h-4zM31 17h5v1h-5zM38 17h1v1h-1zM40 17h1v1h-1zM4 18h2v1h-2zM10 18h2v1h-2zM13 18h2v1h-2zM16 18h1v1h-1zM18 18h1v1h-1zM20 18h1v1h-1zM27 18h3v1h-3zM31 18h1v1h-1zM33 18h8v1h-8zM4 19h2v1h-2zM7 19h3v1h-3zM13 19h2v1h-2zM16 19h1v1h-1zM18 19h1v1h-1zM20 19h1v1h-1zM22 19h4v1h-4zM28 19h1v1h-1zM33 19h2v1h-2zM37 19h1v1h-1zM39 19h1v1h-1zM4 20h2v1h-2zM8 20h1v1h-1zM10 20h3v1h-3zM15 20h2v1h-2zM20 20h1v1h-1zM22 20h4v1h-4zM27 20h2v1h-2zM30 20h2v1h-2zM34 20h2v1h-2zM39 20h1v1h-1zM6 21h1v1h-1zM8 21h2v1h-2zM12 21h2v1h-2zM15 21h4v1h-4zM21 21h2v1h-2zM24 21h1v1h-1zM28 21h1v1h-1zM31 21h2v1h-2zM34 21h2v1h-2zM37 21h2v1h-2zM40 21h1v1h-1zM4 22h1v1h-1zM7 22h2v1h-2zM10 22h1v1h-1zM12 22h6v1h-6zM19 22h1v1h-1zM22 22h1v1h-1zM25 22h1v1h-1zM28 22h1v1h-1zM30 22h2v1h-2zM33 22h2v1h-2zM36 22h1v1h-1zM38 22h1v1h-1zM40 22h1v1h-1zM6 23h2v1h-2zM11 23h1v1h-1zM13 23h1v1h-1zM15 23h1v1h-1zM18 23h3v1h-3zM23 23h2v1h-2zM27 23h2v1h-2zM30 23h1v1h-1zM35 23h1v1h-1zM37 23h1v1h-1zM39 23h2v1h-2zM6 24h1v1h-1zM8 24h5v1h-5zM16 24h1v1h-1zM20 24h5v1h-5zM32 24h3v1h-3zM39 24h2v1h-2zM4 25h1v1h-1zM6 25h1v1h-1zM9 25h1v1h-1zM13 25h3v1h-3zM17 25h1v1h-1zM21 25h1v1h-1zM24 25h1v1h-1zM27 25h3v1h-3zM31 25h1v1h-1zM34 25h2v1h-2zM37 25h4v1h-4zM5 26h1v1h-1zM7 26h1v1h-1zM10 26h1v1h-1zM12 26h1v1h-1zM14 26h2v1h-2zM18 26h4v1h-4zM26 26h2v1h-2zM31 26h3v1h-3zM35 26h3v1h-3zM39 26h2v1h-2zM4 27h1v1h-1zM9 27h1v1h-1zM12 27h1v1h-1zM20 27h2v1h-2zM26 27h2v1h-2zM29 27h1v1h-1zM31 27h1v1h-1zM34 27h2v1h-2zM37 27h1v1h-1zM39 27h2v1h-2zM4 28h1v1h-1zM7 28h1v1h-1zM10 28h1v1h-1zM12 28h2v1h-2zM20 28h1v1h-1zM23 28h2v1h-2zM27 28h3v1h-3zM32 28h1v1h-1zM34 28h1v1h-1zM36 28h2v1h-2zM8 29h2v1h-2zM13 29h1v1h-1zM23 29h2v1h-2zM27 29h2v1h-2zM35 29h1v1h-1zM40 29h1v1h-1zM4 30h3v1h-3zM8 30h1v1h-1zM10 30h1v1h-1zM12 30h3v1h-3zM16 30h2v1h-2zM19 30h1v1h-1zM22 30h1v1h-1zM25 30h4v1h-4zM30 30h2v1h-2zM33 30h2v1h-2zM37 30h2v1h-2zM40 30h1v1h-1zM11 31h4v1h-4zM18 31h3v1h-3zM23 31h1v1h-1zM27 31h2v1h-2zM32 31h4v1h-4zM37 31h1v1h-1zM39 31h1v1h-1zM4 32h4v1h-4zM10 32h6v1h-6zM17 32h2v1h-2zM21 32h1v1h-1zM26 32h3v1h-3zM32 32h7v1h-7zM40 32h1v1h-1zM12 33h2v1h-2zM16 33h1v1h-1zM19 33h3v1h-3zM24 33h1v1h-1zM26 33h4v1h-4zM32 33h1v1h-1zM36 33h2v1h-2zM39 33h2v1h-2zM4 34h7v1h-7zM13 34h4v1h-4zM18 34h2v1h-2zM23 34h5v1h-5zM32 34h1v1h-1zM34 34h1v1h-1zM36 34h3v1h-3zM40 34h1v1h-1zM4 35h1v1h-1zM10 35h1v1h-1zM14 35h2v1h-2zM17 35h2v1h-2zM22 35h1v1h-1zM26 35h1v1h-1zM31 35h2v1h-2zM36 35h2v1h-2zM39 35h1v1h-1zM4 36h1v1h-1zM6 36h3v1h-3zM10 36h1v1h-1zM13 36h1v1h-1zM15 36h1v1h-1zM18 36h1v1h-1zM20 36h1v1h-1zM22 36h6v1h-6zM31 36h6v1h-6zM39 36h2v1h-2zM4 37h1v1h-1zM6 37h3v1h-3zM10 37h1v1h-1zM13 37h2v1h-2zM21 37h1v1h-1zM24 37h1v1h-1zM26 37h1v1h-1zM30 37h3v1h-3zM35 37h2v1h-2zM39 37h2v1h-2zM4 38h1v1h-1zM6 38h3v1h-3zM10 38h1v1h-1zM12 38h3v1h-3zM17 38h2v1h-2zM20 38h1v1h-1zM24 38h2v1h-2zM27 38h1v1h-1zM29 38h1v1h-1zM36 38h2v1h-2zM39 38h2v1h-2zM4 39h1v1h-1zM10 39h1v1h-1zM12 39h1v1h-1zM15 39h2v1h-2zM18 39h2v1h-2zM23 39h2v1h-2zM30 39h1v1h-1zM32 39h2v1h-2zM35 39h1v1h-1zM37 39h1v1h-1zM4 40h7v1h-7zM14 40h4v1h-4zM21 40h1v1h-1zM24 40h1v1h-1zM26 40h2v1h-2zM32 40h1v1h-1zM34 40h4v1h-4zM40 40h1v1h-1z" fill="#000" shape-rendering="crispEdges"/></svg>