<?xml version="1.0" encoding="UTF-8"?><svg xmlns="http://www.w3.org/2000/svg" width="45mm" height="45mm" viewBox="0 0 45 45" role="img" aria-labelledby="qr-title qr-desc"><title id="qr-title">Lab Dojo edition 06, token 44ZSSL QR</title><desc id="qr-desc">https://bad-day-receipt.vercel.app/access/06/44ZSSL</desc><rect width="45" height="45" fill="#fff"/><path d="M4 4h7v1h-7zM15 4h1v1h-1zM19 4h1v1h-1zM23 4h1v1h-1zM27 4h3v1h-3zM34 4h7v1h-7zM4 5h1v1h-1zM10 5h1v1h-1zM12 5h1v1h-1zM15 5h2v1h-2zM19 5h1v1h-1zM21 5h2v1h-2zM24 5h1v1h-1zM26 5h1v1h-1zM30 5h1v1h-1zM34 5h1v1h-1zM40 5h1v1h-1zM4 6h1v1h-1zM6 6h3v1h-3zM10 6h1v1h-1zM13 6h2v1h-2zM16 6h1v1h-1zM19 6h3v1h-3zM24 6h2v1h-2zM28 6h5v1h-5zM34 6h1v1h-1zM36 6h3v1h-3zM40 6h1v1h-1zM4 7h1v1h-1zM6 7h3v1h-3zM10 7h1v1h-1zM12 7h4v1h-4zM20 7h2v1h-2zM23 7h3v1h-3zM28 7h2v1h-2zM32 7h1v1h-1zM34 7h1v1h-1zM36 7h3v1h-3zM40 7h1v1h-1zM4 8h1v1h-1zM6 8h3v1h-3zM10 8h1v1h-1zM12 8h2v1h-2zM15 8h1v1h-1zM17 8h1v1h-1zM20 8h1v1h-1zM24 8h2v1h-2zM28 8h1v1h-1zM30 8h1v1h-1zM34 8h1v1h-1zM36 8h3v1h-3zM40 8h1v1h-1zM4 9h1v1h-1zM10 9h1v1h-1zM18 9h1v1h-1zM22 9h2v1h-2zM25 9h3v1h-3zM34 9h1v1h-1zM40 9h1v1h-1zM4 10h7v1h-7zM12 10h1v1h-1zM14 10h1v1h-1zM16 10h1v1h-1zM18 10h1v1h-1zM20 10h1v1h-1zM22 10h1v1h-1zM24 10h1v1h-1zM26 10h1v1h-1zM28 10h1v1h-1zM30 10h1v1h-1zM32 10h1v1h-1zM34 10h7v1h-7zM12 11h2v1h-2zM17 11h1v1h-1zM20 11h3v1h-3zM27 11h3v1h-3zM31 11h2v1h-2zM5 12h1v1h-1zM7 12h4v1h-4zM12 12h3v1h-3zM16 12h9v1h-9zM29 12h1v1h-1zM32 12h3v1h-3zM36 12h2v1h-2zM39 12h1v1h-1zM8 13h1v1h-1zM12 13h1v1h-1zM17 13h1v1h-1zM19 13h2v1h-2zM24 13h4v1h-4zM29 13h1v1h-1zM33 13h6v1h-6zM4 14h2v1h-2zM7 14h2v1h-2zM10 14h1v1h-1zM13 14h1v1h-1zM16 14h3v1h-3zM20 14h1v1h-1zM24 14h1v1h-1zM26 14h2v1h-2zM29 14h1v1h-1zM33 14h3v1h-3zM37 14h1v1h-1zM39 14h2v1h-2zM6 15h1v1h-1zM9 15h1v1h-1zM11 15h2v1h-2zM18 15h1v1h-1zM20 15h1v1h-1zM24 15h1v1h-1zM27 15h1v1h-1zM30 15h2v1h-2zM33 15h2v1h-2zM38 15h3v1h-3zM4 16h2v1h-2zM7 16h2v1h-2zM10 16h1v1h-1zM13 16h1v1h-1zM15 16h1v1h-1zM18 16h3v1h-3zM22 16h1v1h-1zM26 16h3v1h-3zM32 16h1v1h-1zM34 16h1v1h-1zM4 17h2v1h-2zM7 17h3v1h-3zM11 17h3v1h-3zM17 17h5v1h-5zM23 17h1v1h-1zM25 17h9v1h-9zM36 17h1v1h-1zM38 17h1v1h-1zM4 18h3v1h-3zM8 18h5v1h-5zM14 18h3v1h-3zM20 18h1v1h-1zM24 18h1v1h-1zM28 18h4v1h-4zM34 18h2v1h-2zM37 18h2v1h-2zM40 18h1v1h-1zM5 19h1v1h-1zM7 19h2v1h-2zM12 19h1v1h-1zM14 19h1v1h-1zM20 19h2v1h-2zM23 19h1v1h-1zM25 19h2v1h-2zM30 19h1v1h-1zM32 19h2v1h-2zM36 19h5v1h-5zM4 20h1v1h-1zM8 20h3v1h-3zM13 20h5v1h-5zM21 20h1v1h-1zM25 20h8v1h-8zM34 20h1v1h-1zM38 20h2v1h-2zM6 21h1v1h-1zM9 21h1v1h-1zM13 21h1v1h-1zM15 21h1v1h-1zM18 21h1v1h-1zM20 21h1v1h-1zM22 21h1v1h-1zM24 21h1v1h-1zM26 21h2v1h-2zM31 21h1v1h-1zM33 21h1v1h-1zM35 21h1v1h-1zM37 21h1v1h-1zM39 21h1v1h-1zM7 22h2v1h-2zM10 22h1v1h-1zM12 22h4v1h-4zM18 22h2v1h-2zM22 22h1v1h-1zM24 22h2v1h-2zM28 22h1v1h-1zM30 22h2v1h-2zM33 22h2v1h-2zM36 22h1v1h-1zM38 22h1v1h-1zM40 22h1v1h-1zM4 23h1v1h-1zM7 23h1v1h-1zM12 23h2v1h-2zM16 23h1v1h-1zM18 23h3v1h-3zM22 23h1v1h-1zM24 23h1v1h-1zM27 23h1v1h-1zM29 23h1v1h-1zM34 23h1v1h-1zM36 23h2v1h-2zM39 23h1v1h-1zM4 24h2v1h-2zM8 24h1v1h-1zM10 24h3v1h-3zM16 24h2v1h-2zM20 24h1v1h-1zM22 24h2v1h-2zM27 24h1v1h-1zM30 24h1v1h-1zM32 24h1v1h-1zM34 24h1v1h-1zM36 24h1v1h-1zM40 24h1v1h-1zM5 25h1v1h-1zM8 25h2v1h-2zM13 25h1v1h-1zM16 25h1v1h-1zM20 25h3v1h-3zM24 25h1v1h-1zM26 25h2v1h-2zM29 25h4v1h-4zM35 25h3v1h-3zM39 25h1v1h-1zM4 26h1v1h-1zM7 26h2v1h-2zM10 26h2v1h-2zM15 26h1v1h-1zM17 26h1v1h-1zM19 26h1v1h-1zM21 26h1v1h-1zM27 26h1v1h-1zM29 26h1v1h-1zM31 26h1v1h-1zM33 26h2v1h-2zM36 26h5v1h-5zM8 27h1v1h-1zM12 27h1v1h-1zM14 27h5v1h-5zM22 27h2v1h-2zM28 27h2v1h-2zM31 27h2v1h-2zM35 27h1v1h-1zM37 27h2v1h-2zM5 28h1v1h-1zM7 28h1v1h-1zM10 28h4v1h-4zM15 28h1v1h-1zM20 28h1v1h-1zM24 28h1v1h-1zM27 28h3v1h-3zM32 28h1v1h-1zM34 28h1v1h-1zM36 28h2v1h-2zM4 29h3v1h-3zM9 29h1v1h-1zM11 29h3v1h-3zM16 29h3v1h-3zM21 29h2v1h-2zM27 29h1v1h-1zM29 29h2v1h-2zM34 29h1v1h-1zM36 29h2v1h-2zM4 30h2v1h-2zM7 30h4v1h-4zM13 30h7v1h-7zM21 30h2v1h-2zM24 30h3v1h-3zM28 30h1v1h-1zM31 30h2v1h-2zM34 30h7v1h-7zM4 31h1v1h-1zM6 31h2v1h-2zM11 31h1v1h-1zM13 31h1v1h-1zM16 31h1v1h-1zM20 31h1v1h-1zM22 31h3v1h-3zM26 31h2v1h-2zM30 31h1v1h-1zM33 31h1v1h-1zM37 31h4v1h-4zM4 32h1v1h-1zM7 32h2v1h-2zM10 32h1v1h-1zM12 32h4v1h-4zM18 32h1v1h-1zM22 32h2v1h-2zM27 32h3v1h-3zM32 32h5v1h-5zM40 32h1v1h-1zM12 33h4v1h-4zM20 33h3v1h-3zM24 33h1v1h-1zM29 33h1v1h-1zM32 33h1v1h-1zM36 33h3v1h-3zM4 34h7v1h-7zM15 34h2v1h-2zM18 34h4v1h-4zM23 34h5v1h-5zM32 34h1v1h-1zM34 34h1v1h-1zM36 34h3v1h-3zM40 34h1v1h-1zM4 35h1v1h-1zM10 35h1v1h-1zM12 35h5v1h-5zM20 35h1v1h-1zM22 35h3v1h-3zM26 35h1v1h-1zM28 35h5v1h-5zM36 35h2v1h-2zM39 35h2v1h-2zM4 36h1v1h-1zM6 36h3v1h-3zM10 36h1v1h-1zM12 36h1v1h-1zM14 36h1v1h-1zM20 36h4v1h-4zM25 36h2v1h-2zM30 36h7v1h-7zM40 36h1v1h-1zM4 37h1v1h-1zM6 37h3v1h-3zM10 37h1v1h-1zM12 37h2v1h-2zM15 37h1v1h-1zM18 37h1v1h-1zM20 37h2v1h-2zM28 37h1v1h-1zM31 37h1v1h-1zM34 37h2v1h-2zM38 37h2v1h-2zM4 38h1v1h-1zM6 38h3v1h-3zM10 38h1v1h-1zM13 38h1v1h-1zM16 38h2v1h-2zM23 38h2v1h-2zM26 38h2v1h-2zM32 38h1v1h-1zM35 38h6v1h-6zM4 39h1v1h-1zM10 39h1v1h-1zM12 39h1v1h-1zM14 39h2v1h-2zM17 39h8v1h-8zM26 39h3v1h-3zM30 39h1v1h-1zM34 39h2v1h-2zM37 39h4v1h-4zM4 40h7v1h-7zM14 40h1v1h-1zM21 40h1v1h-1zM24 40h1v1h-1zM26 40h2v1h-2zM32 40h1v1h-1zM34 40h4v1h-4zM40 40h1v1h-1z" fill="#000" shape-rendering="crispEdges"/></svg>