<?xml version="1.0" encoding="UTF-8"?><svg xmlns="http://www.w3.org/2000/svg" width="45mm" height="45mm" viewBox="0 0 45 45" role="img" aria-labelledby="qr-title qr-desc"><title id="qr-title">Lab Dojo edition 01, token CTNZL8 QR</title><desc id="qr-desc">https://bad-day-receipt.vercel.app/access/01/CTNZL8</desc><rect width="45" height="45" fill="#fff"/><path d="M4 4h7v1h-7zM12 4h1v1h-1zM14 4h1v1h-1zM18 4h6v1h-6zM26 4h1v1h-1zM28 4h1v1h-1zM30 4h1v1h-1zM32 4h1v1h-1zM34 4h7v1h-7zM4 5h1v1h-1zM10 5h1v1h-1zM13 5h1v1h-1zM15 5h1v1h-1zM18 5h1v1h-1zM21 5h6v1h-6zM29 5h1v1h-1zM31 5h1v1h-1zM34 5h1v1h-1zM40 5h1v1h-1zM4 6h1v1h-1zM6 6h3v1h-3zM10 6h1v1h-1zM13 6h1v1h-1zM16 6h1v1h-1zM18 6h2v1h-2zM21 6h1v1h-1zM23 6h1v1h-1zM25 6h2v1h-2zM28 6h1v1h-1zM30 6h2v1h-2zM34 6h1v1h-1zM36 6h3v1h-3zM40 6h1v1h-1zM4 7h1v1h-1zM6 7h3v1h-3zM10 7h1v1h-1zM15 7h1v1h-1zM17 7h1v1h-1zM19 7h1v1h-1zM21 7h1v1h-1zM24 7h1v1h-1zM26 7h1v1h-1zM28 7h4v1h-4zM34 7h1v1h-1zM36 7h3v1h-3zM40 7h1v1h-1zM4 8h1v1h-1zM6 8h3v1h-3zM10 8h1v1h-1zM12 8h2v1h-2zM15 8h4v1h-4zM20 8h2v1h-2zM25 8h1v1h-1zM27 8h2v1h-2zM34 8h1v1h-1zM36 8h3v1h-3zM40 8h1v1h-1zM4 9h1v1h-1zM10 9h1v1h-1zM12 9h4v1h-4zM17 9h8v1h-8zM31 9h2v1h-2zM34 9h1v1h-1zM40 9h1v1h-1zM4 10h7v1h-7zM12 10h1v1h-1zM14 10h1v1h-1zM16 10h1v1h-1zM18 10h1v1h-1zM20 10h1v1h-1zM22 10h1v1h-1zM24 10h1v1h-1zM26 10h1v1h-1zM28 10h1v1h-1zM30 10h1v1h-1zM32 10h1v1h-1zM34 10h7v1h-7zM17 11h1v1h-1zM19 11h4v1h-4zM24 11h2v1h-2zM27 11h2v1h-2zM30 11h1v1h-1zM32 11h1v1h-1zM5 12h7v1h-7zM13 12h1v1h-1zM15 12h5v1h-5zM21 12h2v1h-2zM24 12h1v1h-1zM26 12h1v1h-1zM35 12h2v1h-2zM40 12h1v1h-1zM5 13h4v1h-4zM14 13h1v1h-1zM17 13h2v1h-2zM27 13h1v1h-1zM29 13h4v1h-4zM34 13h2v1h-2zM37 13h1v1h-1zM4 14h2v1h-2zM7 14h1v1h-1zM9 14h2v1h-2zM12 14h1v1h-1zM14 14h4v1h-4zM19 14h3v1h-3zM26 14h1v1h-1zM29 14h2v1h-2zM34 14h1v1h-1zM36 14h1v1h-1zM38 14h1v1h-1zM40 14h1v1h-1zM7 15h2v1h-2zM11 15h5v1h-5zM18 15h3v1h-3zM22 15h1v1h-1zM24 15h3v1h-3zM30 15h1v1h-1zM32 15h1v1h-1zM34 15h1v1h-1zM36 15h1v1h-1zM40 15h1v1h-1zM4 16h1v1h-1zM8 16h1v1h-1zM10 16h3v1h-3zM14 16h1v1h-1zM17 16h1v1h-1zM19 16h1v1h-1zM22 16h3v1h-3zM28 16h3v1h-3zM33 16h4v1h-4zM39 16h1v1h-1zM4 17h1v1h-1zM7 17h1v1h-1zM9 17h1v1h-1zM19 17h1v1h-1zM21 17h1v1h-1zM24 17h1v1h-1zM26 17h3v1h-3zM32 17h2v1h-2zM35 17h1v1h-1zM37 17h2v1h-2zM4 18h1v1h-1zM6 18h2v1h-2zM9 18h2v1h-2zM12 18h6v1h-6zM19 18h1v1h-1zM23 18h2v1h-2zM26 18h1v1h-1zM28 18h1v1h-1zM30 18h3v1h-3zM34 18h1v1h-1zM37 18h1v1h-1zM40 18h1v1h-1zM5 19h1v1h-1zM7 19h1v1h-1zM13 19h1v1h-1zM18 19h1v1h-1zM20 19h5v1h-5zM31 19h1v1h-1zM33 19h1v1h-1zM39 19h2v1h-2zM4 20h1v1h-1zM6 20h1v1h-1zM8 20h1v1h-1zM10 20h1v1h-1zM13 20h1v1h-1zM17 20h3v1h-3zM21 20h2v1h-2zM24 20h3v1h-3zM28 20h2v1h-2zM31 20h4v1h-4zM36 20h1v1h-1zM38 20h1v1h-1zM6 21h3v1h-3zM17 21h3v1h-3zM21 21h1v1h-1zM25 21h1v1h-1zM32 21h1v1h-1zM35 21h1v1h-1zM38 21h1v1h-1zM5 22h3v1h-3zM9 22h2v1h-2zM12 22h2v1h-2zM18 22h5v1h-5zM24 22h6v1h-6zM31 22h2v1h-2zM34 22h2v1h-2zM39 22h2v1h-2zM4 23h1v1h-1zM6 23h1v1h-1zM11 23h1v1h-1zM20 23h1v1h-1zM22 23h2v1h-2zM25 23h1v1h-1zM27 23h1v1h-1zM30 23h2v1h-2zM34 23h2v1h-2zM39 23h1v1h-1zM4 24h1v1h-1zM10 24h1v1h-1zM12 24h1v1h-1zM14 24h1v1h-1zM16 24h1v1h-1zM18 24h1v1h-1zM22 24h1v1h-1zM24 24h1v1h-1zM26 24h2v1h-2zM29 24h2v1h-2zM34 24h3v1h-3zM38 24h1v1h-1zM40 24h1v1h-1zM4 25h1v1h-1zM6 25h2v1h-2zM9 25h1v1h-1zM11 25h1v1h-1zM14 25h4v1h-4zM19 25h1v1h-1zM21 25h5v1h-5zM27 25h1v1h-1zM29 25h1v1h-1zM35 25h1v1h-1zM38 25h1v1h-1zM40 25h1v1h-1zM4 26h9v1h-9zM15 26h2v1h-2zM19 26h1v1h-1zM23 26h1v1h-1zM29 26h3v1h-3zM33 26h1v1h-1zM37 26h4v1h-4zM4 27h1v1h-1zM7 27h1v1h-1zM9 27h1v1h-1zM11 27h1v1h-1zM13 27h1v1h-1zM19 27h4v1h-4zM25 27h5v1h-5zM34 27h2v1h-2zM39 27h1v1h-1zM4 28h1v1h-1zM6 28h5v1h-5zM13 28h3v1h-3zM17 28h2v1h-2zM20 28h2v1h-2zM26 28h1v1h-1zM28 28h1v1h-1zM30 28h1v1h-1zM34 28h2v1h-2zM37 28h3v1h-3zM4 29h3v1h-3zM8 29h2v1h-2zM16 29h1v1h-1zM18 29h1v1h-1zM20 29h1v1h-1zM22 29h4v1h-4zM27 29h1v1h-1zM31 29h1v1h-1zM33 29h1v1h-1zM35 29h1v1h-1zM4 30h1v1h-1zM6 30h2v1h-2zM10 30h2v1h-2zM13 30h1v1h-1zM15 30h2v1h-2zM18 30h1v1h-1zM20 30h2v1h-2zM23 30h3v1h-3zM28 30h2v1h-2zM31 30h1v1h-1zM34 30h1v1h-1zM36 30h2v1h-2zM39 30h2v1h-2zM4 31h1v1h-1zM6 31h3v1h-3zM11 31h4v1h-4zM16 31h1v1h-1zM18 31h1v1h-1zM20 31h1v1h-1zM23 31h1v1h-1zM25 31h1v1h-1zM27 31h1v1h-1zM31 31h1v1h-1zM33 31h1v1h-1zM35 31h2v1h-2zM39 31h2v1h-2zM4 32h1v1h-1zM6 32h1v1h-1zM8 32h3v1h-3zM21 32h1v1h-1zM23 32h2v1h-2zM28 32h3v1h-3zM32 32h6v1h-6zM39 32h2v1h-2zM12 33h1v1h-1zM19 33h2v1h-2zM22 33h1v1h-1zM24 33h4v1h-4zM29 33h1v1h-1zM31 33h2v1h-2zM36 33h1v1h-1zM39 33h1v1h-1zM4 34h7v1h-7zM12 34h3v1h-3zM16 34h2v1h-2zM20 34h3v1h-3zM25 34h1v1h-1zM29 34h2v1h-2zM32 34h1v1h-1zM34 34h1v1h-1zM36 34h2v1h-2zM39 34h2v1h-2zM4 35h1v1h-1zM10 35h1v1h-1zM12 35h1v1h-1zM14 35h6v1h-6zM25 35h2v1h-2zM28 35h1v1h-1zM32 35h1v1h-1zM36 35h1v1h-1zM39 35h2v1h-2zM4 36h1v1h-1zM6 36h3v1h-3zM10 36h1v1h-1zM12 36h2v1h-2zM17 36h1v1h-1zM21 36h1v1h-1zM25 36h1v1h-1zM29 36h8v1h-8zM38 36h1v1h-1zM40 36h1v1h-1zM4 37h1v1h-1zM6 37h3v1h-3zM10 37h1v1h-1zM12 37h1v1h-1zM14 37h2v1h-2zM19 37h1v1h-1zM21 37h2v1h-2zM24 37h3v1h-3zM28 37h1v1h-1zM30 37h1v1h-1zM32 37h1v1h-1zM34 37h4v1h-4zM39 37h1v1h-1zM4 38h1v1h-1zM6 38h3v1h-3zM10 38h1v1h-1zM12 38h2v1h-2zM17 38h2v1h-2zM21 38h1v1h-1zM23 38h1v1h-1zM25 38h1v1h-1zM30 38h1v1h-1zM32 38h2v1h-2zM35 38h1v1h-1zM37 38h2v1h-2zM40 38h1v1h-1zM4 39h1v1h-1zM10 39h1v1h-1zM12 39h2v1h-2zM16 39h3v1h-3zM22 39h5v1h-5zM28 39h1v1h-1zM30 39h6v1h-6zM40 39h1v1h-1zM4 40h7v1h-7zM20 40h1v1h-1zM23 40h1v1h-1zM29 40h2v1h-2zM33 40h2v1h-2zM37 40h4v1h-4z" fill="#000" shape-rendering="crispEdges"/></svg>