<?xml version="1.0" encoding="UTF-8"?><svg xmlns="http://www.w3.org/2000/svg" width="45mm" height="45mm" viewBox="0 0 45 45" role="img" aria-labelledby="qr-title qr-desc"><title id="qr-title">Lab Dojo edition 05, token JEJCFM QR</title><desc id="qr-desc">https://bad-day-receipt.vercel.app/access/05/JEJCFM</desc><rect width="45" height="45" fill="#fff"/><path d="M4 4h7v1h-7zM19 4h1v1h-1zM24 4h1v1h-1zM27 4h3v1h-3zM34 4h7v1h-7zM4 5h1v1h-1zM10 5h1v1h-1zM12 5h1v1h-1zM15 5h1v1h-1zM17 5h1v1h-1zM19 5h1v1h-1zM21 5h3v1h-3zM26 5h1v1h-1zM30 5h1v1h-1zM34 5h1v1h-1zM40 5h1v1h-1zM4 6h1v1h-1zM6 6h3v1h-3zM10 6h1v1h-1zM13 6h2v1h-2zM17 6h1v1h-1zM19 6h3v1h-3zM23 6h1v1h-1zM25 6h1v1h-1zM28 6h5v1h-5zM34 6h1v1h-1zM36 6h3v1h-3zM40 6h1v1h-1zM4 7h1v1h-1zM6 7h3v1h-3zM10 7h1v1h-1zM12 7h3v1h-3zM16 7h1v1h-1zM20 7h2v1h-2zM25 7h1v1h-1zM28 7h2v1h-2zM32 7h1v1h-1zM34 7h1v1h-1zM36 7h3v1h-3zM40 7h1v1h-1zM4 8h1v1h-1zM6 8h3v1h-3zM10 8h1v1h-1zM12 8h2v1h-2zM15 8h1v1h-1zM18 8h1v1h-1zM20 8h1v1h-1zM25 8h1v1h-1zM28 8h1v1h-1zM30 8h1v1h-1zM34 8h1v1h-1zM36 8h3v1h-3zM40 8h1v1h-1zM4 9h1v1h-1zM10 9h1v1h-1zM16 9h3v1h-3zM22 9h1v1h-1zM24 9h4v1h-4zM34 9h1v1h-1zM40 9h1v1h-1zM4 10h7v1h-7zM12 10h1v1h-1zM14 10h1v1h-1zM16 10h1v1h-1zM18 10h1v1h-1zM20 10h1v1h-1zM22 10h1v1h-1zM24 10h1v1h-1zM26 10h1v1h-1zM28 10h1v1h-1zM30 10h1v1h-1zM32 10h1v1h-1zM34 10h7v1h-7zM12 11h2v1h-2zM15 11h1v1h-1zM17 11h2v1h-2zM20 11h3v1h-3zM27 11h3v1h-3zM31 11h2v1h-2zM5 12h1v1h-1zM7 12h4v1h-4zM12 12h3v1h-3zM16 12h9v1h-9zM29 12h1v1h-1zM32 12h3v1h-3zM36 12h2v1h-2zM39 12h1v1h-1zM5 13h2v1h-2zM8 13h1v1h-1zM12 13h2v1h-2zM17 13h5v1h-5zM24 13h4v1h-4zM29 13h1v1h-1zM34 13h3v1h-3zM4 14h7v1h-7zM13 14h2v1h-2zM16 14h5v1h-5zM22 14h1v1h-1zM24 14h1v1h-1zM26 14h2v1h-2zM29 14h1v1h-1zM33 14h3v1h-3zM37 14h4v1h-4zM6 15h1v1h-1zM8 15h2v1h-2zM11 15h4v1h-4zM18 15h2v1h-2zM21 15h2v1h-2zM24 15h1v1h-1zM27 15h1v1h-1zM30 15h2v1h-2zM33 15h2v1h-2zM37 15h4v1h-4zM4 16h3v1h-3zM9 16h2v1h-2zM15 16h1v1h-1zM18 16h1v1h-1zM20 16h1v1h-1zM26 16h3v1h-3zM32 16h1v1h-1zM34 16h1v1h-1zM37 16h2v1h-2zM4 17h6v1h-6zM11 17h4v1h-4zM17 17h2v1h-2zM21 17h1v1h-1zM23 17h1v1h-1zM25 17h9v1h-9zM36 17h1v1h-1zM38 17h1v1h-1zM4 18h5v1h-5zM10 18h4v1h-4zM15 18h2v1h-2zM20 18h3v1h-3zM24 18h1v1h-1zM28 18h4v1h-4zM34 18h2v1h-2zM37 18h2v1h-2zM40 18h1v1h-1zM5 19h3v1h-3zM12 19h3v1h-3zM19 19h1v1h-1zM22 19h2v1h-2zM25 19h2v1h-2zM30 19h1v1h-1zM32 19h2v1h-2zM36 19h5v1h-5zM4 20h1v1h-1zM8 20h3v1h-3zM12 20h4v1h-4zM17 20h1v1h-1zM25 20h8v1h-8zM34 20h1v1h-1zM38 20h2v1h-2zM6 21h1v1h-1zM9 21h1v1h-1zM11 21h5v1h-5zM18 21h1v1h-1zM20 21h1v1h-1zM22 21h1v1h-1zM24 21h1v1h-1zM26 21h2v1h-2zM31 21h1v1h-1zM33 21h1v1h-1zM35 21h1v1h-1zM37 21h1v1h-1zM39 21h1v1h-1zM4 22h2v1h-2zM7 22h2v1h-2zM10 22h5v1h-5zM16 22h1v1h-1zM18 22h2v1h-2zM22 22h1v1h-1zM24 22h2v1h-2zM28 22h1v1h-1zM30 22h2v1h-2zM33 22h2v1h-2zM36 22h1v1h-1zM38 22h1v1h-1zM40 22h1v1h-1zM4 23h1v1h-1zM7 23h1v1h-1zM12 23h2v1h-2zM15 23h6v1h-6zM22 23h2v1h-2zM27 23h1v1h-1zM29 23h1v1h-1zM34 23h1v1h-1zM36 23h2v1h-2zM39 23h1v1h-1zM5 24h1v1h-1zM8 24h1v1h-1zM10 24h1v1h-1zM18 24h1v1h-1zM20 24h1v1h-1zM22 24h2v1h-2zM27 24h1v1h-1zM30 24h1v1h-1zM32 24h1v1h-1zM34 24h1v1h-1zM36 24h1v1h-1zM40 24h1v1h-1zM4 25h2v1h-2zM8 25h2v1h-2zM13 25h1v1h-1zM15 25h2v1h-2zM20 25h5v1h-5zM26 25h2v1h-2zM29 25h4v1h-4zM35 25h3v1h-3zM40 25h1v1h-1zM4 26h2v1h-2zM7 26h2v1h-2zM10 26h3v1h-3zM15 26h1v1h-1zM17 26h3v1h-3zM21 26h1v1h-1zM23 26h2v1h-2zM27 26h1v1h-1zM29 26h1v1h-1zM31 26h1v1h-1zM34 26h1v1h-1zM36 26h3v1h-3zM40 26h1v1h-1zM8 27h1v1h-1zM14 27h2v1h-2zM18 27h1v1h-1zM22 27h1v1h-1zM24 27h1v1h-1zM28 27h2v1h-2zM31 27h3v1h-3zM35 27h1v1h-1zM37 27h2v1h-2zM4 28h2v1h-2zM10 28h4v1h-4zM23 28h2v1h-2zM27 28h3v1h-3zM32 28h1v1h-1zM34 28h4v1h-4zM4 29h6v1h-6zM11 29h3v1h-3zM16 29h2v1h-2zM22 29h1v1h-1zM27 29h1v1h-1zM29 29h2v1h-2zM34 29h1v1h-1zM36 29h2v1h-2zM4 30h2v1h-2zM8 30h1v1h-1zM10 30h1v1h-1zM13 30h6v1h-6zM21 30h1v1h-1zM24 30h3v1h-3zM28 30h1v1h-1zM31 30h1v1h-1zM34 30h3v1h-3zM38 30h3v1h-3zM4 31h1v1h-1zM7 31h2v1h-2zM11 31h1v1h-1zM13 31h1v1h-1zM16 31h1v1h-1zM20 31h1v1h-1zM22 31h3v1h-3zM26 31h2v1h-2zM30 31h1v1h-1zM33 31h1v1h-1zM37 31h4v1h-4zM4 32h1v1h-1zM7 32h4v1h-4zM12 32h1v1h-1zM15 32h1v1h-1zM18 32h2v1h-2zM23 32h1v1h-1zM27 32h3v1h-3zM32 32h6v1h-6zM40 32h1v1h-1zM12 33h1v1h-1zM14 33h2v1h-2zM19 33h2v1h-2zM24 33h1v1h-1zM29 33h1v1h-1zM32 33h1v1h-1zM36 33h3v1h-3zM4 34h7v1h-7zM14 34h3v1h-3zM18 34h2v1h-2zM21 34h1v1h-1zM23 34h5v1h-5zM32 34h1v1h-1zM34 34h1v1h-1zM36 34h3v1h-3zM40 34h1v1h-1zM4 35h1v1h-1zM10 35h1v1h-1zM12 35h2v1h-2zM15 35h2v1h-2zM19 35h1v1h-1zM21 35h4v1h-4zM26 35h1v1h-1zM28 35h5v1h-5zM36 35h2v1h-2zM39 35h2v1h-2zM4 36h1v1h-1zM6 36h3v1h-3zM10 36h1v1h-1zM12 36h2v1h-2zM16 36h1v1h-1zM19 36h3v1h-3zM23 36h1v1h-1zM25 36h2v1h-2zM30 36h7v1h-7zM40 36h1v1h-1zM4 37h1v1h-1zM6 37h3v1h-3zM10 37h1v1h-1zM12 37h3v1h-3zM16 37h3v1h-3zM20 37h3v1h-3zM28 37h1v1h-1zM31 37h1v1h-1zM34 37h2v1h-2zM38 37h2v1h-2zM4 38h1v1h-1zM6 38h3v1h-3zM10 38h1v1h-1zM13 38h1v1h-1zM15 38h4v1h-4zM23 38h5v1h-5zM32 38h1v1h-1zM35 38h6v1h-6zM4 39h1v1h-1zM10 39h1v1h-1zM12 39h1v1h-1zM14 39h1v1h-1zM17 39h1v1h-1zM19 39h6v1h-6zM27 39h2v1h-2zM30 39h1v1h-1zM34 39h2v1h-2zM37 39h4v1h-4zM4 40h7v1h-7zM14 40h2v1h-2zM21 40h1v1h-1zM24 40h1v1h-1zM26 40h2v1h-2zM32 40h1v1h-1zM34 40h4v1h-4zM40 40h1v1h-1z" fill="#000" shape-rendering="crispEdges"/></svg>